<?xml version="1.0" encoding="UTF-8"?>
<!DOCTYPE svg PUBLIC "-//W3C//DTD SVG 1.1//EN" "http://www.w3.org/Graphics/SVG/1.1/DTD/svg11.dtd">
<svg xmlns="http://www.w3.org/2000/svg" version="1.1" width="256px" height="240px" style="shape-rendering:geometricPrecision; text-rendering:geometricPrecision; image-rendering:optimizeQuality; fill-rule:evenodd; clip-rule:evenodd" xmlns:xlink="http://www.w3.org/1999/xlink">
<g><path style="opacity:1" fill="#de3a39" d="M 80.5,23.5 C 82.1439,23.2865 83.6439,23.6198 85,24.5C 85.7996,32.5789 85.6329,40.5789 84.5,48.5C 77.8365,52.1652 71.1698,55.8319 64.5,59.5C 61.2459,59.7936 58.5792,61.127 56.5,63.5C 45.6949,69.7381 34.6949,75.7381 23.5,81.5C 23.1667,81.5 22.8333,81.5 22.5,81.5C 21.5026,103.327 21.1693,125.327 21.5,147.5C 22.791,147.737 23.791,147.404 24.5,146.5C 24.5,146.167 24.5,145.833 24.5,145.5C 42.7021,135.566 61.0355,125.899 79.5,116.5C 81.2624,116.357 82.9291,116.691 84.5,117.5C 85.6646,124.811 85.8313,132.144 85,139.5C 84.2828,140.044 83.7828,140.711 83.5,141.5C 56.6676,156.417 29.6676,171.084 2.5,185.5C 1.16701,166.178 0.500347,146.512 0.5,126.5C 0.666667,106.833 0.833333,87.1667 1,67.5C 1.71719,66.9558 2.21719,66.2891 2.5,65.5C 28.1736,50.9949 54.1736,36.9949 80.5,23.5 Z"/></g>
<g><path style="opacity:1" fill="#e64b4c" d="M 109.5,33.5 C 112.008,35.9236 115.008,37.5903 118.5,38.5C 131.001,44.916 143.334,51.5827 155.5,58.5C 159.347,61.5926 163.68,63.9259 168.5,65.5C 169.609,65.5569 170.609,65.8902 171.5,66.5C 171.666,74.5069 171.5,82.5069 171,90.5C 170.586,90.9574 170.086,91.2907 169.5,91.5C 167.821,89.8955 165.821,89.2289 163.5,89.5C 137.01,76.0885 110.676,62.4218 84.5,48.5C 85.6329,40.5789 85.7996,32.5789 85,24.5C 83.6439,23.6198 82.1439,23.2865 80.5,23.5C 82.425,21.5381 84.7583,20.7048 87.5,21C 95.0584,24.9409 102.392,29.1075 109.5,33.5 Z"/></g>
<g><path style="opacity:0.875" fill="#df797a" d="M 109.5,33.5 C 112.992,34.4097 115.992,36.0764 118.5,38.5C 115.008,37.5903 112.008,35.9236 109.5,33.5 Z"/></g>
<g><path style="opacity:0.404" fill="#d26968" d="M 64.5,59.5 C 62.1515,61.341 59.4848,62.6743 56.5,63.5C 58.5792,61.127 61.2459,59.7936 64.5,59.5 Z"/></g>
<g><path style="opacity:0.314" fill="#df7676" d="M 155.5,58.5 C 160.32,60.0741 164.653,62.4074 168.5,65.5C 163.68,63.9259 159.347,61.5926 155.5,58.5 Z"/></g>
<g><path style="opacity:1" fill="#e64c4d" d="M 87.5,67.5 C 114.303,81.4016 140.97,95.5682 167.5,110C 169.545,110.49 171.545,110.323 173.5,109.5C 172.895,111.026 171.729,112.026 170,112.5C 169.333,119.833 169.333,127.167 170,134.5C 170.71,135.973 171.876,136.64 173.5,136.5C 172.235,137.479 170.901,138.479 169.5,139.5C 140.944,124.059 112.61,108.392 84.5,92.5C 83.198,83.8924 83.198,75.2257 84.5,66.5C 85.4168,67.1272 86.4168,67.4606 87.5,67.5 Z"/></g>
<g><path style="opacity:1" fill="#de3a39" d="M 255.5,64.5 C 255.5,104.833 255.5,145.167 255.5,185.5C 227.965,200.434 200.298,215.101 172.5,229.5C 171.5,229.5 170.5,229.5 169.5,229.5C 169.169,221.14 169.502,212.807 170.5,204.5C 172.911,203.639 174.911,202.306 176.5,200.5C 194.142,190.343 212.142,180.676 230.5,171.5C 231.873,171.657 233.207,171.49 234.5,171C 233.506,148.909 233.173,126.742 233.5,104.5C 231.669,105.052 230.003,105.052 228.5,104.5C 228.483,105.394 228.149,106.394 227.5,107.5C 224.001,109.75 220.335,111.75 216.5,113.5C 214.973,113.427 213.973,114.094 213.5,115.5C 200.49,123.006 187.157,130.006 173.5,136.5C 171.876,136.64 170.71,135.973 170,134.5C 169.333,127.167 169.333,119.833 170,112.5C 171.729,112.026 172.895,111.026 173.5,109.5C 191.174,99.3281 209.174,89.6615 227.5,80.5C 231.151,79.3443 234.818,78.1777 238.5,77C 240.444,74.3705 242.777,72.2039 245.5,70.5C 248.466,68.0116 251.799,66.0116 255.5,64.5 Z"/></g>
<g><path style="opacity:0.875" fill="#c63d3c" d="M 2.5,65.5 C 2.21719,66.2891 1.71719,66.9558 1,67.5C 0.833333,87.1667 0.666667,106.833 0.5,126.5C 0.500347,146.512 1.16701,166.178 2.5,185.5C 1.70951,186.401 0.709515,187.068 -0.5,187.5C -0.5,147.167 -0.5,106.833 -0.5,66.5C 0.391047,65.8902 1.39105,65.5569 2.5,65.5 Z"/></g>
<g><path style="opacity:0.251" fill="#c76c6c" d="M 87.5,67.5 C 86.4168,67.4606 85.4168,67.1272 84.5,66.5C 83.198,75.2257 83.198,83.8924 84.5,92.5C 83.1734,88.2175 82.5067,83.5508 82.5,78.5C 82.8333,73.8333 83.1667,69.1667 83.5,64.5C 85.261,65.0351 86.5943,66.0351 87.5,67.5 Z"/></g>
<g><path style="opacity:0.502" fill="#e0696a" d="M 171.5,66.5 C 172.822,75.6749 172.822,85.0082 171.5,94.5C 168.432,93.3087 165.765,91.642 163.5,89.5C 165.821,89.2289 167.821,89.8955 169.5,91.5C 170.086,91.2907 170.586,90.9574 171,90.5C 171.5,82.5069 171.666,74.5069 171.5,66.5 Z"/></g>
<g><path style="opacity:1" fill="#d64f4d" d="M 245.5,70.5 C 242.777,72.2039 240.444,74.3705 238.5,77C 234.818,78.1777 231.151,79.3443 227.5,80.5C 233.17,76.663 239.17,73.3296 245.5,70.5 Z"/></g>
<g><path style="opacity:1" fill="#d34648" d="M 22.5,81.5 C 21.8443,103.526 22.511,125.192 24.5,146.5C 23.791,147.404 22.791,147.737 21.5,147.5C 21.1693,125.327 21.5026,103.327 22.5,81.5 Z"/></g>
<g><path style="opacity:0.251" fill="#feb2b2" d="M 22.5,81.5 C 22.8333,81.5 23.1667,81.5 23.5,81.5C 23.1694,103.007 23.5027,124.34 24.5,145.5C 24.5,145.833 24.5,146.167 24.5,146.5C 22.511,125.192 21.8443,103.526 22.5,81.5 Z"/></g>
<g><path style="opacity:1" fill="#d85556" d="M 230.5,171.5 C 231.811,160.559 232.478,149.392 232.5,138C 232.333,127.167 232.167,116.333 232,105.5C 230.67,106.582 229.17,107.249 227.5,107.5C 228.149,106.394 228.483,105.394 228.5,104.5C 230.003,105.052 231.669,105.052 233.5,104.5C 233.173,126.742 233.506,148.909 234.5,171C 233.207,171.49 231.873,171.657 230.5,171.5 Z"/></g>
<g><path style="opacity:1" fill="#e64c4d" d="M 171.5,159.5 C 172.136,168.565 171.47,177.231 169.5,185.5C 142.062,171.28 114.729,156.78 87.5,142C 86.2068,141.51 84.8734,141.343 83.5,141.5C 83.7828,140.711 84.2828,140.044 85,139.5C 85.8313,132.144 85.6646,124.811 84.5,117.5C 82.9291,116.691 81.2624,116.357 79.5,116.5C 81.1868,114.834 83.1868,113.5 85.5,112.5C 114.229,128.195 142.895,143.862 171.5,159.5 Z"/></g>
<g><path style="opacity:0.027" fill="#ec9391" d="M 216.5,113.5 C 216.027,114.906 215.027,115.573 213.5,115.5C 213.973,114.094 214.973,113.427 216.5,113.5 Z"/></g>
<g><path style="opacity:1" fill="#e64c4c" d="M 84.5,158.5 C 86.2838,158.893 87.9505,159.559 89.5,160.5C 90.985,163.083 93.3183,164.416 96.5,164.5C 115.028,174.262 133.362,184.262 151.5,194.5C 154.008,196.924 157.008,198.59 160.5,199.5C 163.596,200.547 166.596,201.88 169.5,203.5C 171.739,202.212 174.072,201.212 176.5,200.5C 174.911,202.306 172.911,203.639 170.5,204.5C 169.502,212.807 169.169,221.14 169.5,229.5C 170.5,229.5 171.5,229.5 172.5,229.5C 171.201,231.099 169.535,231.599 167.5,231C 139.771,215.805 112.105,200.639 84.5,185.5C 83.1847,176.402 83.1847,167.402 84.5,158.5 Z"/></g>
<g><path style="opacity:0.251" fill="#c56d6d" d="M 84.5,158.5 C 83.1847,167.402 83.1847,176.402 84.5,185.5C 83.1734,181.217 82.5067,176.551 82.5,171.5C 82.8333,166.833 83.1667,162.167 83.5,157.5C 84.1067,157.624 84.44,157.957 84.5,158.5 Z"/></g>
<g><path style="opacity:0.502" fill="#dc6869" d="M 171.5,159.5 C 172.658,168.657 172.824,177.991 172,187.5C 171.005,186.934 170.172,186.267 169.5,185.5C 171.47,177.231 172.136,168.565 171.5,159.5 Z"/></g>
<g><path style="opacity:0.435" fill="#e58783" d="M 89.5,160.5 C 92.0316,161.596 94.3649,162.929 96.5,164.5C 93.3183,164.416 90.985,163.083 89.5,160.5 Z"/></g>
<g><path style="opacity:0.498" fill="#e27d7d" d="M 151.5,194.5 C 154.992,195.41 157.992,197.076 160.5,199.5C 157.008,198.59 154.008,196.924 151.5,194.5 Z"/></g>
<g><path style="opacity:0.376" fill="#a4a4a6" d="M 198.5,239.5 C 200.167,238.167 201.833,238.167 203.5,239.5C 201.833,239.5 200.167,239.5 198.5,239.5 Z"/></g>
</svg>
